<?xml version="1.0" encoding="UTF-8" standalone="no"?>
<svg
   xmlns:dc="http://purl.org/dc/elements/1.1/"
   xmlns:cc="http://creativecommons.org/ns#"
   xmlns:rdf="http://www.w3.org/1999/02/22-rdf-syntax-ns#"
   xmlns:svg="http://www.w3.org/2000/svg"
   xmlns="http://www.w3.org/2000/svg"
   width="20"
   height="20"
   viewBox="0 0 5.2916665 5.2916666"
   version="1.1"
   id="svg8">
  <defs
     id="defs2" />
  <metadata
     id="metadata5">
    <rdf:RDF>
      <cc:Work
         rdf:about="">
        <dc:format>image/svg+xml</dc:format>
        <dc:type
           rdf:resource="http://purl.org/dc/dcmitype/StillImage" />
        <dc:title></dc:title>
      </cc:Work>
    </rdf:RDF>
  </metadata>
  <g
     id="layer1"
     transform="translate(278.90874,-425.97916)">
    <g
       id="g843"
       transform="matrix(0.26458333,0,0,0.26458333,18.569023,117.15371)">
      <g
         id="g2616"
         transform="translate(2.1212829)">
        <g
           transform="matrix(0.00415508,0,0,-0.00415508,-1124.0149,1180.6974)"
           id="g2482">
          <path
             d="m 1732.5231,2685.4137 c -371.9002,-42.8066 -685.1119,-232.3135 -888.88784,-537.6257 -94.3399,-140.3725 -153.8141,-289.4304 -189.5069,-469.4248 -11.9114,-59.4742 -14.2689,-156.2129 -16.6677,-814.35881 l -3.1847,-747.7295 h -94.3812 c -111.7934,0 -160.1835,-14.2689 -217.2589,-64.230604 -41.2349,-36.4786 -80.8982,-111.0075 -88.012,-166.511296 -6.3279,-40.4491 7.1552,-116.5497 25.3945,-153.8555 23.7814,-46.7771 65.0163,-88.7978 114.978,-115.7639 l 49.9617,-26.9661 444.0303,-3.9704 c 0,0 -153.816,-0.041 983.22774,-0.041 l 983.2277,0.041 444.0303,3.9704 42.8066,22.2098 c 95.1671,50.7475 145.9146,134.789 145.9146,243.4391 0.7858,77.713596 -26.1803,138.759496 -82.4699,191.905796 -58.6884,55.503804 -104.6796,69.772704 -221.2293,69.772704 h -95.1671 v 673.2005 c 0,396.46751 -3.1847,714.43551 -7.9409,774.69561 -18.2394,223.6282 -80.8983,404.4084 -201.4184,585.9744 -186.2396,278.3462 -473.2711,465.4957 -803.1092,523.3983 -85.6545,15.0547 -248.9812,21.3826 -324.3374,11.87 z M 3069.329,116.27489 H 634.27596"
             id="path2480"
             style="fill:#d2d00f;fill-opacity:1;stroke:none;stroke-width:90.9616;stroke-miterlimit:4;stroke-dasharray:none;stroke-opacity:1" />
        </g>
        <g
           id="g2472"
           transform="translate(-39.197334,1.4169629e-5)">
          <g
             transform="matrix(0.00415508,0,0,-0.00415508,-1084.9354,1180.6974)"
             id="g996">
            <path
               d="m 1732.5231,2685.4137 c -371.9002,-42.8066 -685.1119,-232.3135 -888.88784,-537.6257 -94.3399,-140.3725 -153.8141,-289.4304 -189.5069,-469.4248 -11.9114,-59.4742 -14.2689,-156.2129 -16.6677,-814.35881 l -3.1847,-747.7295 h -94.3812 c -111.7934,0 -160.1835,-14.2689 -217.2589,-64.230604 -41.2349,-36.4786 -80.8982,-111.0075 -88.012,-166.511296 -6.3279,-40.4491 7.1552,-116.5497 25.3945,-153.8555 23.7814,-46.7771 65.0163,-88.7978 114.978,-115.7639 l 49.9617,-26.9661 444.0303,-3.9704 c 0,0 -153.816,-0.041 983.22774,-0.041 l 983.2277,0.041 444.0303,3.9704 42.8066,22.2098 c 95.1671,50.7475 145.9146,134.789 145.9146,243.4391 0.7858,77.713596 -26.1803,138.759496 -82.4699,191.905796 -58.6884,55.503804 -104.6796,69.772704 -221.2293,69.772704 h -95.1671 v 673.2005 c 0,396.46751 -3.1847,714.43551 -7.9409,774.69561 -18.2394,223.6282 -80.8983,404.4084 -201.4184,585.9744 -186.2396,278.3462 -473.2711,465.4957 -803.1092,523.3983 -85.6545,15.0547 -248.9812,21.3826 -324.3374,11.87 z M 3069.329,116.27489 H 634.27596"
               id="path988"
               style="fill:none;fill-opacity:1;stroke:#000000;stroke-width:181.923;stroke-miterlimit:4;stroke-dasharray:none;stroke-opacity:1" />
            <path
               d="m 1754.7329,2415.8357 c -180.7802,-19.0251 -358.4171,-93.5541 -501.9329,-210.9309 -82.4699,-67.4152 -95.9529,-108.6502 -49.1759,-145.9146 33.294,-26.1803 57.9027,-20.5968 110.2218,25.3944 137.1878,119.7343 306.0567,190.2928 486.8782,202.2042 68.9869,4.7563 76.9278,7.1551 98.3104,27.7519 19.0251,19.0251 21.424,26.9661 17.4535,48.3487 -11.0842,53.9321 -43.5924,65.0163 -161.7551,53.1463 z"
               id="path990"
               style="stroke-width:181.923;stroke-miterlimit:4;stroke-dasharray:none" />
            <path
               d="m 1072.8056,1973.377 c -24.5672,-3.9704 -52.3191,-42.8065 -85.65454,-120.5201 -39.6633,-90.4108 -42.8066,-119.7343 -16.6677,-145.9146 26.9661,-26.9661 67.41524,-27.7519 90.41084,-2.3988 8.7268,9.5126 25.3944,42.8066 37.2645,72.9573 11.9114,30.9365 28.5377,66.588 37.2644,80.071 16.6677,26.9661 19.811,67.4152 7.1138,90.4108 -8.6854,16.6677 -43.551,29.3649 -69.7313,25.3944 z"
               id="path992"
               style="stroke-width:181.923;stroke-miterlimit:4;stroke-dasharray:none" />
            <path
               d="m 2684.8557,707.04689 -19.811,-19.0251 v -192.6916 c 0.7858,-202.2042 1.5716,-207.7463 37.2645,-226.7715 26.1802,-14.2688 46.777,-11.1255 71.3442,9.5126 l 22.2098,19.0252 v 194.2632 194.2633 l -19.0251,20.5968 c -26.1803,27.7519 -65.8022,27.7519 -91.9824,0.8271 z"
               id="path994"
               style="stroke-width:181.923;stroke-miterlimit:4;stroke-dasharray:none" />
          </g>
          <path
             style="fill:none;stroke:#000000;stroke-width:0.755908;stroke-linecap:butt;stroke-linejoin:miter;stroke-miterlimit:4;stroke-dasharray:none;stroke-opacity:1"
             d="m -1077.1821,1187.2143 v -4.4195"
             id="path2191-9" />
        </g>
      </g>
    </g>
    <g
       id="g845"
       transform="matrix(0.26458333,0,0,0.26458333,50.319023,101.27871)" />
    <g
       id="g847"
       transform="matrix(0.26458333,0,0,0.26458333,50.319023,101.27871)" />
    <g
       id="g849"
       transform="matrix(0.26458333,0,0,0.26458333,50.319023,101.27871)" />
    <g
       id="g851"
       transform="matrix(0.26458333,0,0,0.26458333,50.319023,101.27871)" />
    <g
       id="g853"
       transform="matrix(0.26458333,0,0,0.26458333,50.319023,101.27871)" />
    <g
       id="g855"
       transform="matrix(0.26458333,0,0,0.26458333,50.319023,101.27871)" />
    <g
       id="g857"
       transform="matrix(0.26458333,0,0,0.26458333,50.319023,101.27871)" />
    <g
       id="g859"
       transform="matrix(0.26458333,0,0,0.26458333,50.319023,101.27871)" />
    <g
       id="g861"
       transform="matrix(0.26458333,0,0,0.26458333,50.319023,101.27871)" />
    <g
       id="g863"
       transform="matrix(0.26458333,0,0,0.26458333,50.319023,101.27871)" />
    <g
       id="g865"
       transform="matrix(0.26458333,0,0,0.26458333,50.319023,101.27871)" />
    <g
       id="g867"
       transform="matrix(0.26458333,0,0,0.26458333,50.319023,101.27871)" />
    <g
       id="g869"
       transform="matrix(0.26458333,0,0,0.26458333,50.319023,101.27871)" />
    <g
       id="g871"
       transform="matrix(0.26458333,0,0,0.26458333,50.319023,101.27871)" />
    <g
       id="g873"
       transform="matrix(0.26458333,0,0,0.26458333,50.319023,101.27871)" />
  </g>
</svg>
